# AST/ASF file generated using VICON BodyLanguage
# -----------------------------------------------
:version 1.10
:name VICON
:units
  mass 1.0
  length 0.45
  angle deg
:documentation
   .ast/.asf automatically generated from VICON data using
   VICON BodyBuilder and BodyLanguage model FoxedUp or BRILLIANT.MOD
:root
   order TX TY TZ RX RY RZ
   axis XYZ
   position 0 0 0  
   orientation 0 0 0 
:bonedata
  begin
     id 1 
     name lhipjoint
     direction 0.734343 -0.627749 0.258209 
     length 2.5437 
     axis 0 0 0  XYZ
  end
  begin
     id 2 
     name lfemur
     direction 0.34202 -0.939693 0  
     length 6.7391  
     axis 0 0 20  XYZ
    dof rx ry rz
    limits (-160.0 20.0)
           (-70.0 70.0)
           (-60.0 70.0)
  end
  begin
     id 3 
     name ltibia
     direction 0.34202 -0.939693 0   
     length 7.21536   
     axis 0 0 20   XYZ
    dof rx
    limits (-10.0 170.0)
  end
  begin
     id 4 
     name lfoot
     direction 0.0489572 -0.134509 0.989702   
     length 1.61313   
     axis -90 7.62852e-016 20   XYZ
    dof rx rz
    limits (-45.0 90.0)
           (-70.0 20.0)
  end
  begin
     id 5 
     name ltoes
     direction 1.53451e-011 -4.21692e-011 1   
     length 0.823104   
     axis -90 7.62852e-016 20   XYZ
    dof rx
    limits (-90.0 20.0)
  end
  begin
     id 6 
     name rhipjoint
     direction -0.746398 -0.615468 0.253157   
     length 2.59446  
     axis 0 0 0  XYZ 
  end
  begin
     id 7 
     name rfemur
     direction -0.34202 -0.939693 0   
     length 6.7075   
     axis 0 0 -20   XYZ
    dof rx ry rz
    limits (-160.0 20.0)
           (-70.0 70.0)
           (-70.0 60.0)
  end
  begin
     id 8 
     name rtibia
     direction -0.34202 -0.939693 0   
     length 7.27262   
     axis 0 0 -20   XYZ
    dof rx
    limits (-10.0 170.0)
 end
 begin
     id 9 
     name rfoot
     direction -0.0455203 -0.125066 0.991104   
     length 1.91095  
     axis -90 -7.62852e-016 -20   XYZ
    dof rx rz
    limits (-45.0 90.0)
           (-20.0 70.0)
  end
  begin
     id 10 
     name rtoes
     direction -1.53601e-011 -4.21913e-011 1   
     length 0.969037   
     axis -90 -7.62852e-016 -20   XYZ
    dof rx
    limits (-90.0 20.0)
  end
  begin
     id 11 
     name lowerback
     direction 0.0181546 0.999122 -0.0377542   
     length 1.99916   
     axis 0 0 0   XYZ
    dof rx ry rz
    limits (-20.0 45.0)
           (-30.0 30.0)
           (-30.0 30.0)
  end
  begin
     id 12 
     name upperback
     direction 0.0203486 0.99589 0.0882534   
     length 1.951   
     axis 0 0 0   XYZ
    dof rx ry rz
    limits (-20.0 45.0)
           (-30.0 30.0)
           (-30.0 30.0)
  end
  begin
     id 13 
     name thorax
     direction 0.0131685 0.994241 0.106355   
     length 1.97461   
     axis 0 0 0   XYZ
    dof rx ry rz
    limits (-20.0 45.0)
           (-30.0 30.0)
           (-30.0 30.0)
  end
  begin
     id 14 
     name lowerneck
     direction -0.0281395 0.999325 0.023617   
     length 1.7959   
     axis 0 0 0   XYZ
    dof rx ry rz
    limits (-20.0 45.0)
           (-30.0 30.0)
           (-30.0 30.0)
  end
  begin
     id 15 
     name upperneck
     direction 0.0288721 0.991984 -0.123019   
     length 1.79917   
     axis 0 0 0   XYZ
    dof rx ry rz
    limits (-20.0 45.0)
           (-30.0 30.0)
           (-30.0 30.0)
  end
  begin
     id 16
     name head
     direction 0.0133797 0.998944 -0.0439492  
     length 1.80902  
     axis 0 0 0   XYZ
    dof rx ry rz
    limits (-20.0 45.0)
           (-30.0 30.0)
           (-30.0 30.0)
  end
  begin
     id 17 
     name lclavicle
     direction 0.919195 0.377107 0.113449  
     length 3.17815  
     axis 0 0 0   XYZ
    dof ry rz
    limits (-20.0 10.0)
           (0.0 20.0)
  end
  begin
     id 18 
     name lhumerus
     direction 1 -4.48959e-011 2.13129e-027   
     length 4.84137   
     axis 180 -30 -90   XYZ
    dof rx ry rz
    limits (-60.0 90.0)
           (-90.0 90.0)
           (-90.0 90.0)
  end
  begin
     id 19
     name lradius
     direction 1 -4.48957e-011 -6.30627e-028   
     length 3.2452   
     axis 180 -30 -90   XYZ
    dof rx
    limits (-10.0 170.0)
  end
  begin
     id 20
     name lwrist
     direction 1 -4.4901e-011 9.13299e-027   
     length 1.6226   
     axis -6.84618e-015 90 90   XYZ
    dof ry
    limits (-180.0 0.0)
 end
  begin
     id 21 
     name lhand
     direction 1 -4.48816e-011 1.82293e-026   
     length 0.521221   
     axis -1.16502e-014 90 90   XYZ
    dof rx rz
    limits (-90.0 90.0)
           (-45.0 45.0)
  end
  begin
     id 22 
     name lfingers
     direction 1 -4.49108e-011 3.65687e-026   
     length 0.420221   
     axis -2.33008e-014 90 90   XYZ
    dof rx
    limits (0.0 90.0)
  end
  begin
     id 23
     name lthumb
     direction 0.707107 -6.34943e-011 0.707107   
     length 0.603356   
     axis -90 45 5.69224e-014   XYZ
    dof rx rz
    limits (-45.0 45.0)
           (-45.0 45.0)
  end
  begin
     id 24 
     name rclavicle
     direction -0.90847 0.38596 0.160368   
     length 3.12973  
     axis 0 0 0   XYZ 
    dof ry rz
    limits (-10.0 20.0)
           (-20.0 0.0)
  end
  begin
     id 25 
     name rhumerus
     direction -1 -4.48974e-011 4.47268e-028  
     length 4.72284   
     axis 180 30 90   XYZ
    dof rx ry rz
    limits (-90.0 60.0)
           (-90.0 90.0)
           (-90.0 90.0)
  end
  begin
     id 26 
     name rradius
     direction -1 -4.48969e-011 3.43203e-027   
     length 3.23459   
     axis 180 30 90   XYZ
    dof rx
    limits (-10.0 170.0)
  end
  begin
     id 27 
     name rwrist
     direction -1 -4.48969e-011 9.12911e-027   
     length 1.6173   
     axis -6.84618e-015 -90 -90   XYZ
    dof ry
    limits (-180.0 0.0)
  end
  begin
     id 28
     name rhand
     direction -1 -4.49194e-011 1.83006e-026   
     length 0.307416   
     axis -1.16502e-014 -90 -90   XYZ
    dof rx rz
    limits (-90.0 90.0)
           (-45.0 45.0)
  end
  begin
     id 29
     name rfingers
     direction -1 -4.48423e-011 3.63103e-026   
     length 0.247847   
     axis -2.33008e-014 -90 -90   XYZ
    dof rx
    limits (0.0 90.0)
  end
  begin
     id 30
     name rthumb
     direction -0.707107 -6.34802e-011 0.707107   
     length 0.35586   
     axis -90 -45 -5.69224e-014   XYZ
    dof rx rz
    limits (-45.0 45.0)
           (-45.0 45.0)
  end
:hierarchy
  begin
    root lhipjoint rhipjoint lowerback
    lhipjoint lfemur
    lfemur ltibia
    ltibia lfoot
    lfoot ltoes
    rhipjoint rfemur
    rfemur rtibia
    rtibia rfoot
    rfoot rtoes
    lowerback upperback
    upperback thorax
    thorax lowerneck lclavicle rclavicle
    lowerneck upperneck
    upperneck head
    lclavicle lhumerus
    lhumerus lradius
    lradius lwrist
    lwrist lhand lthumb
    lhand lfingers
    rclavicle rhumerus
    rhumerus rradius
    rradius rwrist
    rwrist rhand rthumb
    rhand rfingers
  end

#!OML:ASF H:\Terrain\Patient Classification 1\Animal1\Tuesday\Animal1.ASF
:FULLY-SPECIFIED
:DEGREES
840
root 3.39936 15.9271 -3.89814 49.3004 -36.837 1.62274
lowerback 22.0889 -1.78241 5.77744
upperback -7.2681 0.434505 5.78107
thorax -20.8166 -0.0683781 3.19871
lowerneck 0.828173 2.54613 -4.35874
upperneck -33.6475 3.44778 3.01626
head -11.1428 1.43483 1.62699
rclavicle -3.97569e-014 -1.59028e-015
rhumerus -44.4724 -27.6079 14.457
rradius 31.5021
rwrist -74.1027
rhand -6.91641 3.17028
rfingers 7.12502
rthumb 18.9512 -25.9265
lclavicle -3.97569e-014 -1.59028e-015
lhumerus -51.5826 40.595 -15.3225
lradius 28.9526
lwrist 16.2587
lhand 50.3725 47.9921
lfingers 7.12502
lthumb 70.1935 403.1
rfemur -79.1481 10.8582 13.2636
rtibia 40.1997
rfoot -7.40242 -10.0442
rtoes 5.62757
lfemur -60.57 -10.9289 -0.333607
ltibia 52.3561
lfoot -5.07674 8.54851
ltoes -11.2711
841
root 3.35508 15.9258 -3.89584 50.2921 -37.3046 0.861424
lowerback 21.9772 -1.39542 5.33132
upperback -7.29359 0.835478 5.88709
thorax -20.8043 0.167919 3.4128
lowerneck 0.60841 2.50388 -4.3142
upperneck -33.8126 3.34514 2.86759
head -11.1585 1.39417 1.57906
rclavicle 3.97569e-015 -8.26944e-014
rhumerus -47.0006 -27.666 16.3876
rradius 31.1486
rwrist -73.5363
rhand -11.9257 1.99986
rfingers 7.12502
rthumb 14.1286 -27.4998
lclavicle 3.97569e-015 -8.26944e-014
lhumerus -54.0493 40.3025 -17.5872
lradius 28.7127
lwrist 15.2163
lhand 44.4231 49.436
lfingers 7.12502
lthumb 65.9443 414.958
rfemur -79.4941 11.5498 13.5368
rtibia 39.7663
rfoot -6.95505 -10.0362
rtoes 2.4245
lfemur -60.5086 -10.0919 -0.134275
ltibia 52.1735
lfoot -4.99224 8.79136
ltoes -12.9341
842
root 3.33426 15.9157 -3.87934 50.6265 -37.3418 1.01586
lowerback 21.9251 -1.38419 5.32107
upperback -7.35673 0.846082 5.87743
thorax -20.8561 0.172673 3.40593
lowerneck 0.350868 2.49783 -4.5839
upperneck -33.8924 3.33985 2.96997
head -11.1487 1.412 1.66933
rclavicle -3.18055e-015 2.70347e-014
rhumerus -49.4829 -27.8266 18.4298
rradius 30.7702
rwrist -73.0502
rhand -17.4568 1.35995
rfingers 7.12502
rthumb 8.79454 -28.4368
lclavicle -3.18055e-015 2.70347e-014
lhumerus -56.4403 39.9903 -19.8962
lradius 28.1173
lwrist 13.919
lhand 39.1584 51.6403
lfingers 7.12502
lthumb 61.6939 423.51
rfemur -79.7328 11.4389 13.4596
rtibia 39.4899
rfoot -6.58224 -10.1327
rtoes -0.204369
lfemur -60.718 -10.145 -0.143904
ltibia 51.9542
lfoot -4.92024 8.88416
ltoes -13.6168
843
root 3.31941 15.913 -3.86672 50.7647 -37.1864 1.10804
lowerback 22.1336 -1.46049 5.53412
upperback -7.40168 0.842601 5.92684
thorax -21.0388 0.146904 3.35339
lowerneck 0.0305614 2.49238 -5.20078
upperneck -33.7913 3.43053 3.49297
head -11.0733 1.47443 1.96585
rclavicle -4.6118e-014 -3.18055e-015
rhumerus -51.7435 -27.6349 20.204
rradius 30.4007
rwrist -73.2934
rhand -23.3464 1.50785
rfingers 7.12502
rthumb 3.10853 -28.4492
lclavicle -4.6118e-014 -3.18055e-015
lhumerus -58.9264 39.3579 -21.9433
lradius 27.7935
lwrist 12.5152
lhand 33.9668 53.2176
lfingers 7.12502
lthumb 57.2335 429.607
rfemur -79.766 11.2912 13.5248
rtibia 39.354
rfoot -6.67394 -10.0579
rtoes 1.08068
lfemur -60.7702 -10.4168 0.0738084
ltibia 51.7184
lfoot -4.72329 8.91545
ltoes -14.268
844
root 3.30184 15.9124 -3.8551 51.0516 -36.9545 0.998727
lowerback 22.366 -1.53721 5.89363
upperback -7.59285 0.894578 5.93967
thorax -21.4266 0.119299 3.16491
lowerneck 0.507992 2.48531 -5.29985
upperneck -34.1103 3.46084 3.71341
head -11.3022 1.47029 2.06396
rclavicle 2.8625e-014 1.66979e-014
rhumerus -53.9514 -26.8988 21.7934
rradius 29.9781
rwrist -74.0063
rhand -28.8202 2.49762
rfingers 7.12502
rthumb -2.17807 -27.471
lclavicle 2.8625e-014 1.66979e-014
lhumerus -60.7573 37.867 -23.072
lradius 27.8838
lwrist 11.8818
lhand 27.911 55.031
lfingers 7.12502
lthumb 51.8194 435.243
rfemur -79.879 11.1819 13.8651
rtibia 39.3763
rfoot -6.77867 -9.99473
rtoes 1.56281
lfemur -60.8288 -10.5519 0.482308
ltibia 51.4573
lfoot -4.64023 8.99945
ltoes -13.7338
845
root 3.2804 15.9092 -3.839 51.4674 -36.9842 1.06532
lowerback 22.3353 -1.54333 6.0268
upperback -7.82485 0.918931 5.79948
thorax -21.7081 0.0954282 2.93161
lowerneck 1.6601 2.56414 -5.41164
upperneck -35.2308 3.61305 3.97861
head -12.0113 1.5032 2.18147
rclavicle -1.35174e-014 6.91771e-014
rhumerus -56.1756 -26.113 23.3542
rradius 29.4162
rwrist -74.3688
rhand -33.9705 4.02868
rfingers 7.12502
rthumb -7.15108 -25.8305
lclavicle -1.35174e-014 6.91771e-014
lhumerus -62.4273 36.6861 -24.5315
lradius 27.8029
lwrist 10.9146
lhand 21.8675 58.2282
lfingers 7.12502
lthumb 46.2707 441.209
rfemur -80.2924 11.0312 13.9466
rtibia 39.4339
rfoot -6.80628 -9.87071
rtoes 0.816305
lfemur -61.043 -10.5405 0.57686
ltibia 51.2002
lfoot -4.80699 9.14671
ltoes -12.8816
846
root 3.25933 15.9063 -3.82379 51.8125 -37.1121 1.2987
lowerback 22.1679 -1.53174 5.92739
upperback -7.92137 0.881263 5.73699
thorax -21.7341 0.0870207 2.93149
lowerneck 1.2636 2.58608 -4.65857
upperneck -35.1331 3.47217 3.0994
head -11.8492 1.44409 1.72868
rclavicle 1.59028e-014 -9.54166e-015
rhumerus -58.1266 -25.7978 25.0211
rradius 28.6414
rwrist -74.0196
rhand -38.9514 5.38191
rfingers 7.12502
rthumb -11.9568 -24.2566
lclavicle 1.59028e-014 -9.54166e-015
lhumerus -64.6686 36.3169 -26.9896
lradius 27.2387
lwrist 9.04255
lhand 18.0538 61.8315
lfingers 7.12502
lthumb 42.7179 446.176
rfemur -80.7427 10.8284 13.8408
rtibia 39.4973
rfoot -6.89562 -9.74782
rtoes 0.414922
lfemur -61.3162 -10.5562 0.492494
ltibia 50.9723
lfoot -4.91663 9.23839
ltoes -12.9965
847
root 3.23952 15.901 -3.81323 52.0372 -37.3842 1.44399
lowerback 22.1125 -1.45268 5.58372
upperback -7.91205 0.881535 5.77189
thorax -21.6975 0.139039 3.163
lowerneck 1.6811 2.69896 -5.19291
upperneck -35.9061 3.6336 3.34745
head -12.2894 1.54436 1.91151
rclavicle -4.77083e-015 6.20208e-014
rhumerus -59.6619 -25.1884 26.2362
rradius 27.8369
rwrist -74.2558
rhand -42.9627 7.07438
rfingers 7.12502
rthumb -15.8224 -22.2991
lclavicle -4.77083e-015 6.20208e-014
lhumerus -67.25 36.1037 -29.901
lradius 26.4543
lwrist 6.9366
lhand 15.8143 65.1894
lfingers 7.12502
lthumb 40.6176 269.774
rfemur -81.0726 10.8099 13.643
rtibia 39.5666
rfoot -6.92727 -9.69939
rtoes -0.0517482
lfemur -61.421 -10.538 0.343608
ltibia 50.7741
lfoot -4.926 9.39115
ltoes -12.7964
848
root 3.2201 15.8917 -3.80764 52.2355 -37.8268 1.45856
lowerback 22.2459 -1.29122 5.16468
upperback -7.93368 0.970294 5.68213
thorax -21.8149 0.226387 3.26323
lowerneck 2.00836 2.73542 -5.6343
upperneck -36.4757 3.73819 3.72405
head -12.6296 1.596 2.1342
rclavicle -5.64548e-014 4.13472e-014
rhumerus -61.4574 -24.5272 27.5364
rradius 27.1978
rwrist -74.5082
rhand -46.2565 9.51934
rfingers 7.12502
rthumb -18.9924 -19.5734
lclavicle -5.64548e-014 4.13472e-014
lhumerus -69.9019 36.1484 -33.5465
lradius 25.5871
lwrist 4.33963
lhand 12.3723 67.7676
lfingers 7.12502
lthumb 37.3728 266.265
rfemur -81.3781 11.0086 13.3441
rtibia 39.6266
rfoot -6.91776 -9.67555
rtoes -0.23655
lfemur -61.3641 -10.3816 0.0939723
ltibia 50.6049
lfoot -4.90695 9.71164
ltoes -13.359
849
root 3.20218 15.8867 -3.80346 52.367 -37.9934 1.34505
lowerback 22.6034 -1.23063 5.16109
upperback -7.97027 1.06413 5.53635
thorax -22.0767 0.251331 3.06759
lowerneck 1.66314 2.65176 -5.27629
upperneck -36.3506 3.60691 3.52867
head -12.4819 1.51303 2.00965
rclavicle -1.11319e-014 5.24792e-014
rhumerus -63.8166 -24.9113 30.1924
rradius 26.5864
rwrist -73.1885
rhand -49.9471 12.2435
rfingers 7.12502
rthumb -22.5383 -16.4611
lclavicle -1.11319e-014 5.24792e-014
lhumerus -72.9833 36.5843 -38.4299
lradius 24.6941
lwrist 0.653014
lhand 9.70687 69.5773
lfingers 7.12502
lthumb 34.8483 263.831
rfemur -81.4636 11.1951 13.3069
rtibia 39.6717
rfoot -6.95977 -9.70825
rtoes -0.084357
lfemur -61.2102 -10.2737 0.0747086
ltibia 50.4697
lfoot -4.81481 10.0522
ltoes -16.2885
850
root 3.18599 15.8855 -3.79371 52.4337 -37.9099 1.3161
lowerback 22.8202 -1.29846 5.43595
upperback -7.98779 1.06632 5.44904
thorax -22.2207 0.203807 2.81585
lowerneck 1.18329 2.57259 -4.70334
upperneck -36.0252 3.40955 3.02127
head -12.2087 1.41146 1.73086
rclavicle 7.95139e-016 2.14687e-014
rhumerus -65.9388 -25.5702 33.1751
rradius 25.7996
rwrist -71.5347
rhand -53.9871 17.0279
rfingers 7.12502
rthumb -26.4109 -11.1523
lclavicle 7.95139e-016 2.14687e-014
lhumerus -76.0192 36.6922 -43.2441
lradius 23.8249
lwrist -2.87187
lhand 9.05118 71.8296
lfingers 7.12502
lthumb 34.2259 261.437
rfemur -81.4622 11.2402 13.3079
rtibia 39.7232
rfoot -7.03156 -9.8182
rtoes 0.302194
lfemur -61.1615 -10.3832 0.253699
ltibia 50.381
lfoot -4.80096 10.2056
ltoes -16.8062
851
root 3.17084 15.8797 -3.78315 52.5577 -37.989 1.45019
lowerback 22.5784 -1.2996 5.44649
upperback -7.87856 1.02338 5.39502
thorax -21.921 0.180575 2.75223
lowerneck 0.789606 2.53257 -4.61783
upperneck -35.9304 3.27494 2.734
head -12.0758 1.37349 1.62176
rclavicle -1.74931e-014 -1.51076e-014
rhumerus -67.5277 -25.6751 35.0089
rradius 25.227
rwrist -71.3063
rhand -57.3617 25.9659
rfingers 7.12502
rthumb -29.6368 -1.68658
lclavicle -1.74931e-014 -1.51076e-014
lhumerus -78.9752 36.806 -47.639
lradius 23.0707
lwrist -5.47288
lhand 7.25462 75.0316
lfingers 7.12502
lthumb 32.518 257.868
rfemur -81.673 11.2278 13.078
rtibia 39.782
rfoot -7.07468 -9.91225
rtoes 0.541832
lfemur -61.2968 -10.4907 0.260375
ltibia 50.3548
lfoot -4.94358 10.149
ltoes -13.897
852
root 3.15966 15.8692 -3.77693 52.8285 -38.0598 1.4217
lowerback 22.2386 -1.24862 5.47564
upperback -7.69897 1.04334 5.34668
thorax -21.4698 0.182457 2.65357
lowerneck 0.803687 2.53384 -5.13881
upperneck -36.436 3.32435 3.09547
head -12.3179 1.41489 1.8579
rclavicle -5.725e-014 -6.2816e-014
rhumerus -68.9323 -25.2452 35.6969
rradius 25.3043
rwrist -72.4772
rhand -59.6047 37.5214
rfingers 7.12502
rthumb -31.7754 10.2706
lclavicle -5.725e-014 -6.2816e-014
lhumerus -81.8782 37.0124 -51.7653
lradius 22.628
lwrist -7.46862
lhand 3.61122 77.9737
lfingers 7.12502
lthumb 29.0445 254.27
rfemur -81.9431 11.24 13.0805
rtibia 39.812
rfoot -7.12452 -9.87558
rtoes 0.49611
lfemur -61.4952 -10.4131 0.337384
ltibia 50.4011
lfoot -5.01266 9.97612
ltoes -11.3504
853
root 3.14658 15.8615 -3.7701 53.0879 -38.0089 1.15889
lowerback 22.3285 -1.22542 5.64917
upperback -7.72532 1.14448 5.36319
thorax -21.5568 0.20112 2.53823
lowerneck 1.69079 2.65176 -6.2706
upperneck -37.4728 3.72139 4.29935
head -13.0354 1.58993 2.50778
rclavicle -2.62396e-014 8.74653e-015
rhumerus -69.8207 -24.3717 35.9318
rradius 25.6466
rwrist -74.106
rhand -60.9436 49.5883
rfingers 7.12502
rthumb -33.0496 22.5986
lclavicle -2.62396e-014 8.74653e-015
lhumerus -83.6365 36.5378 -54.5291
lradius 22.3221
lwrist -8.54933
lhand 0.750284 80.0455
lfingers 7.12502
lthumb 26.3088 251.759
rfemur -81.982 11.2953 13.4667
rtibia 39.8062
rfoot -7.24284 -9.64103
rtoes 0.727101
lfemur -61.5175 -10.2619 0.584052
ltibia 50.503
lfoot -5.08878 9.75149
ltoes -10.1721
854
root 3.13106 15.8586 -3.76239 53.2662 -37.9838 0.800536
lowerback 22.5814 -1.19773 5.74278
upperback -7.81452 1.25463 5.40476
thorax -21.8308 0.235219 2.49968
lowerneck -0.0756949 2.57816 -3.83503
upperneck -35.3664 3.21026 1.94716
head -11.6318 1.34028 1.19214
rclavicle 4.05521e-014 -5.1684e-014
rhumerus -70.29 -23.5247 36.1502
rradius 25.8403
rwrist -75.4338
rhand -61.3973 59.8034
rfingers 7.12502
rthumb -33.4811 32.906
lclavicle 4.05521e-014 -5.1684e-014
lhumerus -84.571 35.7832 -56.3838
lradius 22.0886
lwrist -8.73127
lhand -0.577472 81.7142
lfingers 7.12502
lthumb 25.0371 249.907
rfemur -81.8907 11.4111 13.9651
rtibia 39.8991
rfoot -7.40035 -9.37017
rtoes 0.803905
lfemur -61.335 -10.1018 0.820695
ltibia 50.5767
lfoot -5.17038 9.83767
ltoes -8.20727
